<svg xmlns="http://www.w3.org/2000/svg" viewBox="0 0 128 128" role="img" aria-hidden="true">
  <defs>
    <radialGradient id="sunCore" cx="50%" cy="45%" r="55%">
      <stop offset="0%" stop-color="#fff7a8"/>
      <stop offset="70%" stop-color="#ffd43b"/>
      <stop offset="100%" stop-color="#ffae1f"/>
    </radialGradient>
  </defs>
  <g fill="#ffb11f" stroke="#e28c12" stroke-width="2" stroke-linejoin="round">
    <path d="M64 8l8 20-8-5-8 5z"/>
    <path d="M64 120l-8-20 8 5 8-5z"/>
    <path d="M8 64l20-8-5 8 5 8z"/>
    <path d="M120 64l-20 8 5-8-5-8z"/>
    <path d="M24 24l18 6-9 3-3 9z"/>
    <path d="M104 104l-18-6 9-3 3-9z"/>
    <path d="M24 104l6-18 3 9 9 3z"/>
    <path d="M104 24l-6 18-3-9-9-3z"/>
  </g>
  <circle cx="64" cy="64" r="28" fill="url(#sunCore)" stroke="#e29118" stroke-width="3"/>
</svg>
