<svg xmlns="http://www.w3.org/2000/svg" viewBox="0 0 160 140" role="img" aria-hidden="true">
  <defs>
    <linearGradient id="cloudFill" x1="0%" y1="0%" x2="0%" y2="100%">
      <stop offset="0%" stop-color="#ffffff"/>
      <stop offset="100%" stop-color="#dbe7f2"/>
    </linearGradient>
  </defs>
  <g transform="translate(22 16)">
    <path d="M28 58c-15.5 0-28-11.2-28-25 0-12.2 10-22.4 23.5-24.5C28 3.5 36.6 0 46 0c16 0 29.3 10.7 32.7 24.8 2.6-1 5.5-1.5 8.4-1.5 13.8 0 24.9 10.1 24.9 22.5S100.9 68 87.1 68H28z" fill="url(#cloudFill)" stroke="#c7d4e2" stroke-width="3"/>
  </g>
  <g fill="#59a9ff" stroke="#2c7ed6" stroke-width="2">
    <path d="M50 103c0 6-4 10-8 10s-8-4-8-10c0-3 3-7 8-14 5 7 8 11 8 14z"/>
    <path d="M86 116c0 6-4 10-8 10s-8-4-8-10c0-3 3-7 8-14 5 7 8 11 8 14z"/>
    <path d="M122 103c0 6-4 10-8 10s-8-4-8-10c0-3 3-7 8-14 5 7 8 11 8 14z"/>
  </g>
</svg>
