<svg xmlns="http://www.w3.org/2000/svg" viewBox="0 0 160 140" role="img" aria-hidden="true">
  <defs>
    <linearGradient id="cloudFill" x1="0%" y1="0%" x2="0%" y2="100%">
      <stop offset="0%" stop-color="#ffffff"/>
      <stop offset="100%" stop-color="#dbe7f2"/>
    </linearGradient>
  </defs>
  <g transform="translate(22 16)">
    <path d="M28 58c-15.5 0-28-11.2-28-25 0-12.2 10-22.4 23.5-24.5C28 3.5 36.6 0 46 0c16 0 29.3 10.7 32.7 24.8 2.6-1 5.5-1.5 8.4-1.5 13.8 0 24.9 10.1 24.9 22.5S100.9 68 87.1 68H28z" fill="url(#cloudFill)" stroke="#c7d4e2" stroke-width="3"/>
  </g>
  <g stroke="#6fb5ff" stroke-width="4" stroke-linecap="round">
    <path d="M48 94v20"/><path d="M38 104h20"/><path d="M41 97l14 14"/><path d="M55 97l-14 14"/>
    <path d="M80 108v20"/><path d="M70 118h20"/><path d="M73 111l14 14"/><path d="M87 111l-14 14"/>
    <path d="M112 94v20"/><path d="M102 104h20"/><path d="M105 97l14 14"/><path d="M119 97l-14 14"/>
  </g>
</svg>
